<?xml version="1.0" encoding="UTF-8" standalone="no"?>
<svg
   xmlns:dc="http://purl.org/dc/elements/1.1/"
   xmlns:cc="http://creativecommons.org/ns#"
   xmlns:rdf="http://www.w3.org/1999/02/22-rdf-syntax-ns#"
   xmlns:svg="http://www.w3.org/2000/svg"
   xmlns="http://www.w3.org/2000/svg"
   viewBox="0 0 1066.6667 800"
   height="800"
   width="1066.6667"
   xml:space="preserve"
   id="svg2"
   version="1.1"><metadata
     id="metadata8"><rdf:RDF><cc:Work
         rdf:about=""><dc:format>image/svg+xml</dc:format><dc:type
           rdf:resource="http://purl.org/dc/dcmitype/StillImage" /></cc:Work></rdf:RDF></metadata><defs
     id="defs6"><clipPath
       id="clipPath18"
       clipPathUnits="userSpaceOnUse"><path
         id="path16"
         d="M 0,600 H 800 V 0 H 0 Z" /></clipPath></defs><g
     transform="matrix(1.3333333,0,0,-1.3333333,0,800)"
     id="g10"><g
       id="g12"><g
         clip-path="url(#clipPath18)"
         id="g14"><g
           transform="translate(244.5918,300.0625)"
           id="g20"><path
             id="path22"
             style="fill:#1c3e80;fill-opacity:1;fill-rule:nonzero;stroke:none"
             d="m 0,0 c 0,85.821 69.575,155.346 155.408,155.346 85.8,0 155.408,-69.525 155.408,-155.346 0,-85.82 -69.608,-155.471 -155.408,-155.471 C 69.575,-155.471 0,-85.82 0,0" /></g><g
           transform="translate(251.4116,299.9541)"
           id="g24"><path
             id="path26"
             style="fill:#ffffff;fill-opacity:1;fill-rule:nonzero;stroke:none"
             d="m 0,0 c 0,82.116 66.482,148.634 148.555,148.634 82.107,0 148.621,-66.518 148.621,-148.634 0,-82.033 -66.514,-148.542 -148.621,-148.542 C 66.482,-148.542 0,-82.033 0,0" /></g><g
           transform="translate(257.4019,300.0254)"
           id="g28"><path
             id="path30"
             style="fill:#ca142a;fill-opacity:1;fill-rule:nonzero;stroke:none"
             d="m 0,0 c 0,78.742 63.839,142.573 142.594,142.573 78.797,0 142.602,-63.831 142.602,-142.573 0,-78.785 -63.805,-142.623 -142.602,-142.623 C 63.839,-142.623 0,-78.785 0,0" /></g><g
           transform="translate(400.0127,389.1553)"
           id="g32"><path
             id="path34"
             style="fill:#ffffff;fill-opacity:1;fill-rule:nonzero;stroke:none"
             d="m 0,0 c -49.19,0 -89.168,-39.906 -89.168,-89.163 0,-49.275 39.978,-89.149 89.168,-89.149 49.257,0 89.144,39.874 89.144,89.149 C 89.144,-39.906 49.257,0 0,0" /></g><g
           transform="translate(424.5957,343.5625)"
           id="g36"><path
             id="path38"
             style="fill:#1c3e80;fill-opacity:1;fill-rule:nonzero;stroke:none"
             d="m 0,0 -3.186,-38.31 18.143,-31.192 3.284,38.327" /></g><g
           transform="translate(403.2012,336.4526)"
           id="g40"><path
             id="path42"
             style="fill:#1c3e80;fill-opacity:1;fill-rule:nonzero;stroke:none"
             d="m 0,0 -3.251,-38.193 18.142,-31.275 3.318,38.335" /></g><g
           transform="translate(446.1797,350.5391)"
           id="g44"><path
             id="path46"
             style="fill:#1c3e80;fill-opacity:1;fill-rule:nonzero;stroke:none"
             d="m 0,0 -3.251,-38.244 18.142,-31.225 3.252,38.335" /></g><g
           transform="translate(464.3896,319.3052)"
           id="g48"><path
             id="path50"
             style="fill:#1c3e80;fill-opacity:1;fill-rule:nonzero;stroke:none"
             d="m 0,0 17.1,-29.389 c 0.375,3.354 0.633,6.691 0.633,10.113 0,17.824 -5.685,34.346 -15.34,47.797" /></g><g
           transform="translate(461.1045,281.0195)"
           id="g52"><path
             id="path54"
             style="fill:#1c3e80;fill-opacity:1;fill-rule:nonzero;stroke:none"
             d="m 0,0 -3.218,-38.418 -18.242,31.342 -3.219,-38.401 -18.3,31.325 -3.185,-38.351 -18.334,31.392 3.219,38.468 -18.21,31.192 3.286,38.31 18.233,-31.2 3.194,38.276 18.234,-31.359 2.842,33.979 c -8.587,3.097 -17.834,4.707 -27.488,4.707 -32.215,0 -60.045,-18.509 -73.552,-45.512 l 12.248,-20.936 3.184,38.21 18.234,-31.2 3.318,38.218 18.209,-31.3 -3.218,-38.512 -18.209,31.343 -3.218,-38.302 -18.242,31.317 -3.218,-38.325 18.209,-31.193 3.218,38.201 18.242,-31.257 3.151,38.334 18.334,-31.393 -3.252,-38.4 -18.233,31.275 -2.56,-30.457 c 8.488,-3.021 17.733,-4.607 27.355,-4.607 31.432,0 58.787,17.625 72.577,43.641" /></g><g
           transform="translate(431.3154,376.0312)"
           id="g56"><path
             id="path58"
             style="fill:#1c3e80;fill-opacity:1;fill-rule:nonzero;stroke:none"
             d="m 0,0 14.765,-25.334 1.392,16.422 C 11.204,-5.374 5.777,-2.37 0,0" /></g><g
           transform="translate(365.7168,225.1787)"
           id="g60"><path
             id="path62"
             style="fill:#1c3e80;fill-opacity:1;fill-rule:nonzero;stroke:none"
             d="M 0,0 -12.056,20.644 -13.165,7.577 C -9.03,4.673 -4.669,2.153 0,0" /></g><g
           transform="translate(335.3608,277.3486)"
           id="g64"><path
             id="path66"
             style="fill:#1c3e80;fill-opacity:1;fill-rule:nonzero;stroke:none"
             d="m 0,0 -17.392,29.865 c -0.158,-2.403 -0.25,-4.806 -0.25,-7.184 0,-17.942 5.778,-34.546 15.466,-48.065" /></g><g
           transform="translate(306.3086,328.3911)"
           id="g68"><path
             id="path70"
             style="fill:#ffffff;fill-opacity:1;fill-rule:nonzero;stroke:none"
             d="m 0,0 -12.589,4.479 4.953,13.636 -6.779,2.336 -4.894,-13.478 -6.97,2.494 5.044,13.887 -6.72,2.435 -8.329,-22.978 33.008,-11.844 z" /></g><g
           transform="translate(297.3213,355.1226)"
           id="g72"><path
             id="path74"
             style="fill:#ffffff;fill-opacity:1;fill-rule:nonzero;stroke:none"
             d="m 0,0 c 11.456,-7.256 20.068,-2.744 24.804,4.829 4.227,6.698 3.368,12.411 -1.676,17.841 l -6.437,-6.44 c 1.543,-1.834 3.877,-4.611 1.735,-7.989 -2.935,-4.604 -8.363,-2.619 -13.257,0.508 -7.729,4.888 -7.003,9.275 -5.611,11.485 2.268,3.637 5.678,2.494 7.354,1.835 l 3.218,8.366 C 5.586,32.294 -1.392,32.136 -6.278,24.496 -10.672,17.49 -11.489,7.198 0,0" /></g><g
           transform="translate(338.0576,410.3701)"
           id="g76"><path
             id="path78"
             style="fill:#ffffff;fill-opacity:1;fill-rule:nonzero;stroke:none"
             d="m 0,0 4.385,2.427 c 2.302,1.36 3.66,1.36 4.987,-1.075 1.2,-2.078 0.375,-3.72 -1.643,-4.83 L 3.376,-5.972 Z m 17.008,-10.576 c 1.067,-1.926 0.409,-4.045 -1.767,-5.237 l -4.861,-2.812 -3.693,6.623 4.577,2.594 c 2.46,1.36 4.294,1.518 5.744,-1.168 m 1.326,-11.526 c 3.185,1.868 11.989,6.756 7.353,14.996 -3.16,5.713 -7.953,4.896 -10.671,3.82 l -0.125,0.25 C 16.25,-1.835 19.818,1.451 16.6,7.165 12.239,14.738 4.161,10.292 1.451,8.774 L -11.455,1.543 5.678,-29.108 Z" /></g><g
           transform="translate(384.5386,418.9858)"
           id="g80"><path
             id="path82"
             style="fill:#ffffff;fill-opacity:1;fill-rule:nonzero;stroke:none"
             d="M 0,0 C 0.375,1.543 0.784,3.787 0.884,5.747 H 1.1 C 1.451,4.479 2.143,2.394 3.118,0.342 l 3.635,-7.823 -8.521,-1.01 z m -3.319,-15.597 13.007,1.518 2.901,-6.88 10.097,1.101 -16.217,33.528 -12.088,-1.425 -8.738,-36.391 9.588,1.135 z" /></g><g
           transform="translate(416.7207,396.7915)"
           id="g84"><path
             id="path86"
             style="fill:#ffffff;fill-opacity:1;fill-rule:nonzero;stroke:none"
             d="m 0,0 9.496,-1.543 2.084,12.811 16.125,19.826 -10.539,1.643 -5.802,-8.049 c -0.76,-0.95 -2.276,-3.47 -2.91,-4.954 L 8.237,19.826 C 7.986,21.561 7.703,23.295 7.069,25.039 L 3.852,34.855 -7.037,36.649 2.018,12.82 Z" /></g><g
           transform="translate(458.749,381.3872)"
           id="g88"><path
             id="path90"
             style="fill:#ffffff;fill-opacity:1;fill-rule:nonzero;stroke:none"
             d="m 0,0 3.352,6.438 -13.699,7.199 3.219,6.155 12.464,-6.564 3.31,6.405 -12.398,6.506 3.002,5.805 13.214,-6.973 3.318,6.347 -21.552,11.427 -16.282,-31.06 z" /></g><g
           transform="translate(491.0645,390.3193)"
           id="g92"><path
             id="path94"
             style="fill:#ffffff;fill-opacity:1;fill-rule:nonzero;stroke:none"
             d="m 0,0 3.285,-3.686 c 2.21,-2.244 1.61,-4.17 0.184,-5.497 -2.96,-2.777 -4.953,-0.508 -5.836,0.317 l -3.311,3.628 z m -20.668,-19.191 9.972,9.057 2.426,-2.644 -5.995,-13.452 7.228,-7.766 6.154,16.256 c 4.168,-1.927 7.795,-0.759 10.979,2.243 7.355,6.689 1.201,13.354 -0.567,15.314 L -1.292,11.652 -27.139,-12.085 Z" /></g><g
           transform="translate(489.2051,342.937)"
           id="g96"><path
             id="path98"
             style="fill:#ffffff;fill-opacity:1;fill-rule:nonzero;stroke:none"
             d="m 0,0 18.359,5.847 c 1.901,0.692 3.352,1.293 5.053,1.985 L 23.537,7.457 C 22.402,6.914 19.877,5.088 17.826,2.969 l -14.232,-14.045 3.76,-11.519 33.349,10.726 -2.709,8.557 -16.349,-5.27 c -3.127,-0.976 -5.52,-1.927 -7.004,-2.719 l -0.125,0.417 c 2.367,1.634 4.509,3.561 6.211,5.271 L 34.393,7.832 30.641,19.259 -2.751,8.523 Z" /></g><g
           transform="translate(317.3228,246.9297)"
           id="g100"><path
             id="path102"
             style="fill:#ffffff;fill-opacity:1;fill-rule:nonzero;stroke:none"
             d="m 0,0 -17.792,-3.22 c -1.359,-0.183 -4.327,-1.017 -5.936,-1.518 l -0.125,0.317 c 1.642,1.067 3.66,2.835 4.352,3.47 l 13.223,12.877 -6.686,12.879 -31.116,-16.214 4.169,-7.958 17,8.908 c 2.593,1.385 6.503,3.652 7.637,4.42 l 0.283,-0.449 C -16.024,12.693 -18.3,10.793 -19.91,9.225 l -16.124,-16.048 3.285,-6.306 20.41,3.787 c 2.56,0.5 6.853,1.451 8.27,1.951 l 0.192,-0.5 c -1.326,-0.566 -4.769,-2.152 -7.037,-3.403 l -17.992,-9.358 4.327,-8.206 31.082,16.229 z" /></g><g
           transform="translate(375.9512,185.375)"
           id="g104"><path
             id="path106"
             style="fill:#ffffff;fill-opacity:1;fill-rule:nonzero;stroke:none"
             d="m 0,0 c -0.909,-3.102 -1.576,-5.554 -1.768,-7.322 l -0.441,0.25 c 0.033,2.836 -0.25,5.738 -0.692,8.091 l -3.127,18.866 -11.514,3.67 -10.447,-33.596 8.554,-2.652 5.745,18.316 c 0.658,2.019 0.975,3.603 1.351,5.238 l 0.383,-0.068 c -0.192,-1.2 -0.159,-4.354 0.317,-7.322 l 3.31,-19.634 11.614,-3.653 10.38,33.511 -8.521,2.721 z" /></g><g
           transform="translate(413.8516,172.3643)"
           id="g108"><path
             id="path110"
             style="fill:#ffffff;fill-opacity:1;fill-rule:nonzero;stroke:none"
             d="m 0,0 c -5.394,-1.2 -7.795,4.104 -9.121,9.659 -2.117,8.975 1.517,11.56 4.011,12.127 4.194,1.018 5.87,-2.086 6.561,-3.787 l 8.204,3.653 C 7.639,26.206 2.527,31.011 -6.219,28.926 -14.297,27.024 -22.06,20.202 -18.966,7.007 -15.84,-6.121 -6.502,-8.891 2.11,-6.806 9.848,-5.104 13.248,-0.366 13.374,7.007 L 4.354,6.956 C 4.104,4.487 3.844,0.952 0,0" /></g><g
           transform="translate(444.9922,212.7822)"
           id="g112"><path
             id="path114"
             style="fill:#ffffff;fill-opacity:1;fill-rule:nonzero;stroke:none"
             d="m 0,0 6.22,-11.626 -10.13,-5.555 -6.311,11.61 -8.454,-4.537 16.532,-30.877 8.555,4.621 -6.978,12.994 10.162,5.439 6.97,-13.078 8.555,4.62 -16.6,30.927 z" /></g><g
           transform="translate(485.5703,206.5273)"
           id="g116"><path
             id="path118"
             style="fill:#ffffff;fill-opacity:1;fill-rule:nonzero;stroke:none"
             d="m 0,0 -4.793,5.172 10.32,9.541 -4.893,5.305 -10.288,-9.541 -4.419,4.736 10.955,10.109 -4.927,5.288 -17.892,-16.598 23.861,-25.688 18.301,16.914 -4.862,5.239 z" /></g><g
           transform="translate(493.0244,263.5273)"
           id="g120"><path
             id="path122"
             style="fill:#ffffff;fill-opacity:1;fill-rule:nonzero;stroke:none"
             d="m 0,0 15.049,-8.141 c 2.868,-1.634 5.202,-2.652 6.819,-3.218 l -0.258,-0.436 c -2.836,0.635 -5.677,0.936 -8.079,1.002 l -19.084,0.517 -5.778,-10.559 30.832,-16.714 4.227,7.822 -16.85,9.208 c -1.834,1.019 -3.219,1.585 -4.894,2.404 l 0.193,0.199 c 1.166,-0.383 4.191,-0.885 7.16,-1.018 L 29.313,-19.5 35.083,-8.893 4.228,7.906 Z" /></g><g
           transform="translate(344.269,217.5039)"
           id="g124"><path
             id="path126"
             style="fill:#ffffff;fill-opacity:1;fill-rule:nonzero;stroke:none"
             d="m 0,0 -13.599,-17.481 c -2.175,-2.72 -5.11,-4.488 -8.611,-1.769 -3.127,2.469 -2.435,5.738 -0.126,8.591 L -8.804,6.822 -16.5,12.762 -29.973,-4.722 c -6.378,-8.206 -2.968,-15.229 3.435,-20.215 7.579,-5.923 14.866,-5.172 20.226,1.833 L 7.295,-5.738 Z" /></g><g
           transform="translate(342.4429,219.0215)"
           id="g128"><path
             id="path130"
             style="fill:#ffffff;fill-opacity:1;fill-rule:nonzero;stroke:none"
             d="M 0,0 -4.952,3.854 -8.679,-5.988 Z" /></g></g></g></g></svg>